<svg xmlns="http://www.w3.org/2000/svg" width="562.54" height="348.522"><g fill="none" stroke="#fff" stroke-linecap="round" stroke-linejoin="round" stroke-miterlimit="10" stroke-width="5"><path data-name="Pfad 19" d="M2.788 228.342L140.082 61.628l15.575-36.342 78.454-22.5 32.881 46.149-77.877 160.948 50.187-5.769 124.026-56.533 111.335-5.769-36.915 66.917 85.953 76.723 36.342 8.653-169.6 51.918H130.275l-35.189-10.96-15.575-57.687 75.569-85.953 25.382-39.8-66.339 36.919z"/><path data-name="Pfad 20" d="M26.728 199.211l132.1-130.372 21.921 82.492z"/><path data-name="Pfad 21" d="M184.211 62.494l-3.461 88.837 16.152-24.228z"/><path data-name="Pfad 22" d="M140.371 62.494l18.46 6.349 25.382-8.076z"/><path data-name="Pfad 23" d="M233.822 2.5v41.534l-49.61 16.729z"/><path data-name="Pfad 24" d="M140.371 62.494L233.823 2.5 155.369 25z"/><path data-name="Pfad 25" d="M196.904 127.103l36.919-83.069-4.659 83.069z"/><path data-name="Pfad 26" d="M154.792 191.135l34.035 18.46 40.38-82.492z"/><path data-name="Pfad 27" d="M130.56 345.735l24.228-154.6L79.8 277.088l15.575 57.686z"/><path data-name="Pfad 28" d="M188.828 209.595l-57.687 134.986 46.5-60.45 61.373-80.305z"/><path data-name="Pfad 29" d="M363.618 147.293L177.867 284.01l297.085-142.486z"/><path data-name="Pfad 30" d="M284.587 316.892l106.143 28.843-48.456-103.259z"/><path data-name="Pfad 31" d="M523.409 285.741l-181.136-43.266 95.76-32.88z"/><path data-name="Pfad 32" d="M2.5 228.631l178.251-77.3-66.916 36.919z"/><path data-name="Pfad 33" d="M177.867 284.011l106.72 32.877 102.774-133.35"/></g></svg>